<?xml version="1.0" standalone="no"?>
<!DOCTYPE svg PUBLIC "-//W3C//DTD SVG 20010904//EN"
 "http://www.w3.org/TR/2001/REC-SVG-20010904/DTD/svg10.dtd">
<svg version="1.0" xmlns="http://www.w3.org/2000/svg"
 width="637.000000pt" height="312.000000pt" viewBox="0 0 637.000000 312.000000"
 preserveAspectRatio="xMidYMid meet">
<metadata>
Created by potrace 1.14, written by Peter Selinger 2001-2017
</metadata>
<g transform="translate(0.000000,312.000000) scale(0.100000,-0.100000)"
fill="#000000" stroke="none">
<path d="M3090 3014 c-14 -2 -52 -9 -85 -15 -125 -22 -277 -103 -382 -202
-249 -234 -318 -612 -169 -921 92 -190 257 -336 463 -410 85 -30 93 -31 253
-31 155 0 170 2 245 28 209 73 370 213 465 402 108 217 112 476 10 694 -100
212 -308 383 -532 436 -66 15 -225 27 -268 19z m280 -634 c123 0 200 -4 200
-10 0 -5 -89 -164 -197 -352 l-198 -342 -3 197 -2 197 -201 0 c-127 0 -199 4
-197 10 2 5 91 162 198 348 l195 339 3 -194 2 -193 200 0z"/>
<path d="M1615 1029 c-33 -5 -88 -23 -122 -39 -335 -165 -297 -653 60 -762 57
-17 86 -20 165 -16 l97 5 71 -68 71 -69 134 0 134 0 -119 119 -119 119 32 40
c17 22 44 67 59 99 24 52 27 69 27 163 -1 86 -5 116 -24 163 -46 117 -182 226
-302 242 -88 12 -105 12 -164 4z m170 -178 c78 -35 145 -142 145 -231 0 -63
-31 -134 -79 -181 -148 -143 -386 -49 -399 157 -3 36 1 85 8 109 16 56 67 117
122 144 55 27 147 28 203 2z"/>
<path d="M2810 960 l0 -60 90 0 90 0 0 60 0 60 -90 0 -90 0 0 -60z"/>
<path d="M3682 731 l3 -288 35 -69 c60 -118 167 -170 330 -162 157 7 263 81
306 213 14 40 18 105 22 323 l4 272 -91 0 -91 0 0 -247 c0 -148 -5 -264 -11
-287 -40 -144 -256 -155 -318 -16 -12 28 -16 85 -19 293 l-4 257 -85 0 -84 0
3 -289z"/>
<path d="M4746 839 c-47 -11 -101 -43 -121 -72 -14 -21 -15 -20 -15 21 l0 42
-90 0 -90 0 0 -375 0 -375 90 0 90 0 0 104 0 105 50 -34 c133 -90 303 -40 380
110 33 64 35 74 35 164 0 76 -5 106 -21 142 -58 125 -188 196 -308 168z m71
-158 c30 -14 48 -31 62 -60 28 -54 28 -144 1 -189 -43 -70 -135 -93 -201 -49
-100 67 -91 244 15 297 50 25 70 25 123 1z"/>
<path d="M2180 613 c0 -120 5 -234 10 -254 25 -90 101 -149 192 -149 59 0 103
17 151 60 l37 32 0 -41 0 -41 85 0 85 0 0 305 0 305 -85 0 -85 0 0 -180 c0
-194 -8 -233 -51 -264 -34 -23 -93 -21 -124 7 -37 31 -44 78 -45 270 l0 167
-85 0 -85 0 0 -217z"/>
<path d="M2810 525 l0 -305 90 0 90 0 0 305 0 305 -90 0 -90 0 0 -305z"/>
<path d="M3080 760 l0 -70 150 0 151 0 -156 -171 -155 -171 0 -64 0 -64 265 0
265 0 0 70 0 70 -155 0 c-85 0 -155 3 -155 6 0 3 70 82 155 175 l155 169 0 60
0 60 -260 0 -260 0 0 -70z"/>
</g>
</svg>
